<svg xmlns="http://www.w3.org/2000/svg" xmlns:xlink="http://www.w3.org/1999/xlink" width="64" height="64" viewBox="0 0 64 64"><defs><style>.a{fill:#fff;stroke:#707070;opacity:0;}.b{fill:#333;}.c{fill:url(#a);}.d{stroke:none;}.e{fill:none;}</style><linearGradient id="a" x1="1" y1="0.5" x2="0" y2="0.5" gradientUnits="objectBoundingBox"><stop offset="0" stop-color="#007edf"/><stop offset="1" stop-color="#0825b8"/></linearGradient></defs><g transform="translate(-62 -984)"><g class="a" transform="translate(62 984)"><rect class="d" width="64" height="64"/><rect class="e" x="0.5" y="0.5" width="63" height="63"/></g><g transform="translate(-363.934 233.297)"><path class="b" d="M542.289,375.747l-9.959-8.649h-14.79v-38.81h49.431V367.1H552.248ZM521.541,363.1h12.284l8.464,7.351,8.464-7.351h12.219v-30.81H521.541Z" transform="translate(-84.605 430.415)"/><path class="c" d="M532.648,337.886h4.034v4.034h-4.034Zm7.764,0h4.033v4.034h-4.033Zm7.763,0h4.032v4.034h-4.032Zm-15.527,8.041h4.034v4.033h-4.034Zm7.764,0h4.033v4.033h-4.033Zm7.763,0h4.032v4.033h-4.032Zm-15.527,8.167h4.034v4.033h-4.034Zm7.764,0h4.033v4.033h-4.033Zm7.763,0h4.032v4.033h-4.032Z" transform="translate(-84.777 430.238)"/></g></g></svg>