<svg xmlns="http://www.w3.org/2000/svg" xmlns:xlink="http://www.w3.org/1999/xlink" width="64" height="64" viewBox="0 0 64 64"><defs><style>.a{fill:#fff;stroke:#707070;opacity:0;}.b{fill:#333;}.c{stroke:rgba(0,0,0,0);stroke-miterlimit:10;}.c,.d{fill:url(#a);}.e{stroke:none;}.f{fill:none;}</style><linearGradient id="a" x1="1" y1="0.5" x2="0" y2="0.5" gradientUnits="objectBoundingBox"><stop offset="0" stop-color="#007edf"/><stop offset="1" stop-color="#0825b8"/></linearGradient></defs><g transform="translate(-62 -480)"><g class="a" transform="translate(62 480)"><rect class="e" width="64" height="64"/><rect class="f" x="0.5" y="0.5" width="63" height="63"/></g><g transform="translate(-134 -269)"><path class="b" d="M321.153,378.512H288.6V323.585h47.024v40.133Zm-28.548-4h26.866l12.158-12.425v-34.5H292.6Z" transform="translate(-84.605 430.415)"/><g transform="translate(-84.605 430.415)"><path class="c" d="M16770.457,14083l1.328-1.865a4.14,4.14,0,0,0,2.42,1.007c.791,0,1.129-.287,1.129-.754,0-.573-.926-.843-1.9-1.229-1.143-.455-2.439-1.226-2.439-2.825,0-1.8,1.465-3.028,3.7-3.028a5.456,5.456,0,0,1,3.412,1.229l-1.328,1.781a3.652,3.652,0,0,0-1.982-.8c-.691,0-1.01.231-1.01.687,0,.572.824.791,1.818,1.145,1.191.455,2.521,1.146,2.521,2.876,0,1.765-1.381,3.129-3.986,3.129A6.173,6.173,0,0,1,16770.457,14083Zm-4.092,1.112-2.3-4.409h-1.449v4.409h-3.006v-12.527h4.59c2.674,0,4.893.922,4.893,3.949a3.7,3.7,0,0,1-2.152,3.613l2.791,4.965Zm-3.752-6.779h1.348c1.432,0,2.2-.619,2.2-1.8s-.77-1.562-2.2-1.562h-1.348Z" transform="translate(-16456.748 -13737.767)"/></g><g transform="translate(-84.605 430.415)"><path class="d" d="M25.61,2H0V-2H25.61Z" transform="translate(299.312 355.878)"/><path class="d" d="M11.561,2H0V-2H11.561Z" transform="translate(299.312 366.122)"/></g></g></g></svg>