<svg xmlns="http://www.w3.org/2000/svg" width="64" height="64" viewBox="0 0 64 64"><defs><style>.a{fill:#fff;stroke:#707070;opacity:0;}.b{fill:#354b63;}.c{stroke:none;}.d{fill:none;}</style></defs><g transform="translate(-62 -608)"><g class="a" transform="translate(62 608)"><rect class="c" width="64" height="64"/><rect class="d" x="0.5" y="0.5" width="63" height="63"/></g><g transform="translate(-317.941 118.186)"><path class="b" d="M5.146-1.5a6.653,6.653,0,0,1,6.646,6.646v2.6a6.646,6.646,0,0,1-13.292,0v-2.6A6.653,6.653,0,0,1,5.146-1.5Zm0,13.145A3.9,3.9,0,0,0,9.04,7.751v-2.6A3.9,3.9,0,0,0,5.146,1.252h0A3.9,3.9,0,0,0,1.252,5.146v2.6A3.9,3.9,0,0,0,5.146,11.645Z" transform="translate(409.495 509.976)"/><path class="b" d="M447.7,323.012h6.476l9.079,3.741V334.5H438.622v-7.747Zm5.931,2.752h-5.386l-6.872,2.831v3.153H460.5V328.6Z" transform="translate(-36.297 198.609)"/><path class="b" d="M10.65,1.669H0V-2H10.65Z" transform="translate(388.533 512.278)"/><path class="b" d="M11.322,1.669H0V-2H11.322Z" transform="translate(388.196 532.682)"/><path class="b" d="M-2-2H39.926V47.533H-2ZM36.257,1.669H1.669V43.864H36.257Z" transform="translate(393.91 499.548)"/></g></g></svg>