<svg xmlns="http://www.w3.org/2000/svg" width="64" height="64" viewBox="0 0 64 64"><defs><style>.a{fill:#fff;stroke:#707070;opacity:0;}.b,.c{fill:#354b63;}.b{stroke:#354b63;stroke-width:0.5px;}.d{stroke:none;}.e{fill:none;}</style></defs><g transform="translate(-62 -776)"><g class="a" transform="translate(62 776)"><rect class="d" width="64" height="64"/><rect class="e" x="0.5" y="0.5" width="63" height="63"/></g><g transform="translate(-391.955 291.381)"><path class="b" d="M-2-2H47.868V38.676H-2ZM44.593,1.275H1.275V35.4H44.593Z" transform="translate(463.021 498.281)"/><path class="c" d="M5.8-2A7.8,7.8,0,1,1-2,5.8,7.812,7.812,0,0,1,5.8-2Zm0,12.331A4.528,4.528,0,1,0,1.275,5.8,4.533,4.533,0,0,0,5.8,10.331Z" transform="translate(469.283 510.816)"/><g transform="translate(486.965 509.717)"><path class="c" d="M17.414,1.275H0V-2H17.414Z" transform="translate(0 2)"/><path class="c" d="M11.1,1.275H0V-2H11.1Z" transform="translate(0 12.529)"/></g></g></g></svg>