<svg xmlns="http://www.w3.org/2000/svg" width="64" height="64" viewBox="0 0 64 64"><defs><style>.a{fill:#fff;stroke:#707070;opacity:0;}.b{fill:#354b63;}.c{stroke:none;}.d{fill:none;}</style></defs><g transform="translate(-62 -272)"><g class="a" transform="translate(62 272)"><rect class="c" width="64" height="64"/><rect class="d" x="0.5" y="0.5" width="63" height="63"/></g><g transform="translate(-159.959 -215.958)"><path class="b" d="M10.926-2A12.926,12.926,0,0,1,23.851,10.926v5.527A12.926,12.926,0,0,1,10.926,29.379,12.926,12.926,0,0,1-2,16.453V10.926A12.926,12.926,0,0,1,10.926-2Zm0,27.892a9.45,9.45,0,0,0,9.439-9.439V10.926a9.45,9.45,0,0,0-9.439-9.439h0a9.45,9.45,0,0,0-9.439,9.439v5.527A9.45,9.45,0,0,0,10.926,25.892Z" transform="translate(243.034 497)"/><path class="b" d="M282.345,326.22h13.276l18.32,7.549v14.475H264.024V333.769Zm12.585,3.487h-11.9l-15.524,6.4v8.655h42.944V336.1Z" transform="translate(-35.023 196.672)"/></g></g></svg>