<svg xmlns="http://www.w3.org/2000/svg" xmlns:xlink="http://www.w3.org/1999/xlink" width="64" height="64" viewBox="0 0 64 64"><defs><style>.a{fill:#fff;stroke:#707070;opacity:0;}.b{fill:url(#a);}.c{fill:#333;}.d{stroke:none;}.e{fill:none;}</style><linearGradient id="a" x1="1" y1="0.339" x2="0" y2="0.448" gradientUnits="objectBoundingBox"><stop offset="0" stop-color="#007edf"/><stop offset="1" stop-color="#0825b8"/></linearGradient></defs><g transform="translate(-62 -648)"><g class="a" transform="translate(62 648)"><rect class="d" width="64" height="64"/><rect class="e" x="0.5" y="0.5" width="63" height="63"/></g><g transform="translate(-207.957 -100.701)"><path class="b" d="M16695.836,14527.625a8.419,8.419,0,1,0-16.838,0h-4a12.337,12.337,0,0,1,3.639-8.782,12.473,12.473,0,0,1,2.77-2.094,8.6,8.6,0,1,1,12.025,0,12.563,12.563,0,0,1,2.77,2.094,12.355,12.355,0,0,1,3.633,8.782Zm-13.02-17.023a4.6,4.6,0,1,0,4.6-4.6A4.608,4.608,0,0,0,16682.816,14510.6Zm21.037,12.332v-4h8.438v4Zm0-10.242v-4h14.92v4Z" transform="translate(-16394.531 -13734.98)"/><path class="c" d="M-2-2H54.537V42.255H-2ZM50.537,2H2V38.255H50.537Z" transform="translate(275.955 760.702)"/></g></g></svg>