<svg xmlns="http://www.w3.org/2000/svg" width="64" height="64" viewBox="0 0 64 64"><defs><style>.a{fill:#fff;stroke:#707070;opacity:0;}.b{fill:#354b63;}.c{stroke:none;}.d{fill:none;}</style></defs><g transform="translate(-62 -440)"><g class="a" transform="translate(62 440)"><rect class="c" width="64" height="64"/><rect class="d" x="0.5" y="0.5" width="63" height="63"/></g><g transform="translate(-240.576 -51.024)"><path class="b" d="M-2-2H45.209V36.032H-2ZM41.5,1.713H1.713V32.319H41.5Z" transform="translate(312.972 509.993)"/><path class="b" d="M-2-2H22.811V9.681H-2ZM19.1,1.713H1.713V5.969H19.1Z" transform="translate(324.17 502.024)"/><path class="b" d="M43.5,1.713H0V-2H43.5Z" transform="translate(312.828 521.991)"/><g transform="translate(322.397 517.41)"><path class="b" d="M1.713,8.6H-2V0H1.713Z" transform="translate(2 0)"/><path class="b" d="M1.713,9.146H-2V0H1.713Z" transform="translate(22.646 0)"/></g></g></g></svg>