<svg xmlns="http://www.w3.org/2000/svg" width="44" height="44" viewBox="0 0 44 44"><defs><style>.a{fill:#698ec7;}.b{fill:#f6f9fd;}</style></defs><g transform="translate(-46 -256)"><circle class="a" cx="22" cy="22" r="22" transform="translate(46 256)"/><g transform="translate(-22.485 188.793)"><path class="b" d="M242.5,208.8a26.457,26.457,0,0,1,7.653,1.265.4.4,0,0,1,.263.382l-.457,9.445a.666.666,0,0,1-.254.457l-6.966,4.818a.453.453,0,0,1-.48,0l-6.966-4.818a.666.666,0,0,1-.254-.457l-.457-9.445a.4.4,0,0,1,.263-.382A26.455,26.455,0,0,1,242.5,208.8Z" transform="translate(-152.017 -126.244)"/><path class="b" d="M102.623,81.2a.4.4,0,0,1,.244.394l-1.392,14.112a1.429,1.429,0,0,1-.537.912l-9.772,6.752a1.28,1.28,0,0,1-1.359,0l-9.772-6.752a1.43,1.43,0,0,1-.537-.912L78.1,81.6a.4.4,0,0,1,.244-.394,36.958,36.958,0,0,1,12.138-2.358A36.958,36.958,0,0,1,102.623,81.2ZM82.63,82.224c-.923.2-1.771.412-2.522.625-.26.073-.488.141-.681.2l-.209.066a1.914,1.914,0,0,0,1.322-2l1.109,14.336a1.52,1.52,0,0,0-.69-1.2l10.252,7.084a1.205,1.205,0,0,0-1.452,0l10.331-7.022a1.5,1.5,0,0,0-.769,1.135l1.109-14.336A1.937,1.937,0,0,0,101.8,83.13l-.249-.079c-.194-.06-.422-.127-.682-.2-.752-.212-1.6-.426-2.524-.625a34.462,34.462,0,0,0-15.712,0Z"/></g></g></svg>